<mxfile host="app.diagrams.net" modified="2022-12-07T20:11:01.015Z" agent="5.0 (Macintosh; Intel Mac OS X 10_15_7) AppleWebKit/605.1.15 (KHTML, like Gecko) Version/16.1 Safari/605.1.15" etag="uaQ0hgif1Mem9bslwL57" version="20.6.0" type="github">
  <diagram name="Page-1" id="822b0af5-4adb-64df-f703-e8dfc1f81529">
    <mxGraphModel dx="1064" dy="655" grid="1" gridSize="10" guides="1" tooltips="1" connect="1" arrows="1" fold="1" page="1" pageScale="1" pageWidth="1100" pageHeight="850" background="none" math="0" shadow="0">
      <root>
        <mxCell id="0" />
        <mxCell id="1" parent="0" />
        <mxCell id="xROOwzo1f8ktLxokpW9C-19" value="" style="ellipse;shape=cloud;whiteSpace=wrap;html=1;fillColor=#fff2cc;strokeColor=#d6b656;" vertex="1" parent="1">
          <mxGeometry x="100" y="40" width="900" height="440" as="geometry" />
        </mxCell>
        <mxCell id="xROOwzo1f8ktLxokpW9C-5" style="edgeStyle=orthogonalEdgeStyle;rounded=0;orthogonalLoop=1;jettySize=auto;html=1;exitX=0.5;exitY=0;exitDx=0;exitDy=0;entryX=0;entryY=0.5;entryDx=0;entryDy=0;" edge="1" parent="1" source="xROOwzo1f8ktLxokpW9C-1" target="xROOwzo1f8ktLxokpW9C-3">
          <mxGeometry relative="1" as="geometry" />
        </mxCell>
        <mxCell id="xROOwzo1f8ktLxokpW9C-1" value="home router" style="rounded=0;whiteSpace=wrap;html=1;" vertex="1" parent="1">
          <mxGeometry x="180" y="250" width="120" height="60" as="geometry" />
        </mxCell>
        <mxCell id="xROOwzo1f8ktLxokpW9C-2" value="internet" style="ellipse;shape=cloud;whiteSpace=wrap;html=1;" vertex="1" parent="1">
          <mxGeometry x="400" y="225" width="120" height="80" as="geometry" />
        </mxCell>
        <mxCell id="xROOwzo1f8ktLxokpW9C-15" style="edgeStyle=orthogonalEdgeStyle;rounded=0;orthogonalLoop=1;jettySize=auto;html=1;exitX=1;exitY=0.5;exitDx=0;exitDy=0;entryX=0.5;entryY=0;entryDx=0;entryDy=0;" edge="1" parent="1" source="xROOwzo1f8ktLxokpW9C-3" target="xROOwzo1f8ktLxokpW9C-10">
          <mxGeometry relative="1" as="geometry" />
        </mxCell>
        <mxCell id="xROOwzo1f8ktLxokpW9C-16" style="edgeStyle=orthogonalEdgeStyle;rounded=0;orthogonalLoop=1;jettySize=auto;html=1;exitX=1;exitY=0.75;exitDx=0;exitDy=0;entryX=0.5;entryY=0;entryDx=0;entryDy=0;" edge="1" parent="1" source="xROOwzo1f8ktLxokpW9C-3" target="xROOwzo1f8ktLxokpW9C-11">
          <mxGeometry relative="1" as="geometry" />
        </mxCell>
        <mxCell id="xROOwzo1f8ktLxokpW9C-3" value="tailscale tailnet" style="shape=process;whiteSpace=wrap;html=1;backgroundOutline=1;" vertex="1" parent="1">
          <mxGeometry x="400" y="200" width="120" height="40" as="geometry" />
        </mxCell>
        <mxCell id="xROOwzo1f8ktLxokpW9C-8" style="edgeStyle=orthogonalEdgeStyle;rounded=0;orthogonalLoop=1;jettySize=auto;html=1;exitX=0.4;exitY=0.1;exitDx=0;exitDy=0;exitPerimeter=0;entryX=0;entryY=0.5;entryDx=0;entryDy=0;" edge="1" parent="1" source="xROOwzo1f8ktLxokpW9C-6" target="xROOwzo1f8ktLxokpW9C-1">
          <mxGeometry relative="1" as="geometry">
            <mxPoint x="170" y="560" as="targetPoint" />
          </mxGeometry>
        </mxCell>
        <mxCell id="xROOwzo1f8ktLxokpW9C-6" value="iot vlan" style="ellipse;shape=cloud;whiteSpace=wrap;html=1;" vertex="1" parent="1">
          <mxGeometry x="70" y="490" width="120" height="80" as="geometry" />
        </mxCell>
        <mxCell id="xROOwzo1f8ktLxokpW9C-10" value="datacenter router 1" style="rounded=0;whiteSpace=wrap;html=1;" vertex="1" parent="1">
          <mxGeometry x="710" y="300" width="120" height="60" as="geometry" />
        </mxCell>
        <mxCell id="xROOwzo1f8ktLxokpW9C-30" style="edgeStyle=orthogonalEdgeStyle;rounded=0;orthogonalLoop=1;jettySize=auto;html=1;exitX=0.5;exitY=1;exitDx=0;exitDy=0;entryX=0.625;entryY=0.2;entryDx=0;entryDy=0;entryPerimeter=0;" edge="1" parent="1" source="xROOwzo1f8ktLxokpW9C-11" target="xROOwzo1f8ktLxokpW9C-22">
          <mxGeometry relative="1" as="geometry" />
        </mxCell>
        <mxCell id="xROOwzo1f8ktLxokpW9C-11" value="datacenter router 2" style="rounded=0;whiteSpace=wrap;html=1;" vertex="1" parent="1">
          <mxGeometry x="840" y="300" width="120" height="60" as="geometry" />
        </mxCell>
        <mxCell id="xROOwzo1f8ktLxokpW9C-26" style="edgeStyle=orthogonalEdgeStyle;rounded=0;orthogonalLoop=1;jettySize=auto;html=1;exitX=0.5;exitY=1;exitDx=0;exitDy=0;entryX=0.5;entryY=0;entryDx=0;entryDy=0;" edge="1" parent="1" source="xROOwzo1f8ktLxokpW9C-12" target="xROOwzo1f8ktLxokpW9C-14">
          <mxGeometry relative="1" as="geometry" />
        </mxCell>
        <mxCell id="xROOwzo1f8ktLxokpW9C-12" value="vm host 1...n" style="rounded=0;whiteSpace=wrap;html=1;" vertex="1" parent="1">
          <mxGeometry x="710" y="540" width="70" height="60" as="geometry" />
        </mxCell>
        <mxCell id="xROOwzo1f8ktLxokpW9C-14" value="homeassistant" style="rounded=0;whiteSpace=wrap;html=1;" vertex="1" parent="1">
          <mxGeometry x="780" y="630" width="120" height="60" as="geometry" />
        </mxCell>
        <mxCell id="xROOwzo1f8ktLxokpW9C-27" style="edgeStyle=orthogonalEdgeStyle;rounded=0;orthogonalLoop=1;jettySize=auto;html=1;exitX=0.5;exitY=1;exitDx=0;exitDy=0;" edge="1" parent="1" source="xROOwzo1f8ktLxokpW9C-20" target="xROOwzo1f8ktLxokpW9C-14">
          <mxGeometry relative="1" as="geometry" />
        </mxCell>
        <mxCell id="xROOwzo1f8ktLxokpW9C-20" value="vm host 1...n" style="rounded=0;whiteSpace=wrap;html=1;" vertex="1" parent="1">
          <mxGeometry x="800" y="540" width="70" height="60" as="geometry" />
        </mxCell>
        <mxCell id="xROOwzo1f8ktLxokpW9C-28" value="" style="edgeStyle=orthogonalEdgeStyle;rounded=0;orthogonalLoop=1;jettySize=auto;html=1;" edge="1" parent="1" source="xROOwzo1f8ktLxokpW9C-21" target="xROOwzo1f8ktLxokpW9C-14">
          <mxGeometry relative="1" as="geometry" />
        </mxCell>
        <mxCell id="xROOwzo1f8ktLxokpW9C-21" value="vm host 1...n" style="rounded=0;whiteSpace=wrap;html=1;" vertex="1" parent="1">
          <mxGeometry x="890" y="540" width="70" height="60" as="geometry" />
        </mxCell>
        <mxCell id="xROOwzo1f8ktLxokpW9C-23" style="edgeStyle=orthogonalEdgeStyle;rounded=0;orthogonalLoop=1;jettySize=auto;html=1;exitX=0.13;exitY=0.77;exitDx=0;exitDy=0;exitPerimeter=0;entryX=1;entryY=0;entryDx=0;entryDy=0;" edge="1" parent="1" source="xROOwzo1f8ktLxokpW9C-22" target="xROOwzo1f8ktLxokpW9C-12">
          <mxGeometry relative="1" as="geometry" />
        </mxCell>
        <mxCell id="xROOwzo1f8ktLxokpW9C-24" style="edgeStyle=orthogonalEdgeStyle;rounded=0;orthogonalLoop=1;jettySize=auto;html=1;exitX=0.55;exitY=0.95;exitDx=0;exitDy=0;exitPerimeter=0;entryX=0.5;entryY=0;entryDx=0;entryDy=0;" edge="1" parent="1" source="xROOwzo1f8ktLxokpW9C-22" target="xROOwzo1f8ktLxokpW9C-20">
          <mxGeometry relative="1" as="geometry" />
        </mxCell>
        <mxCell id="xROOwzo1f8ktLxokpW9C-25" style="edgeStyle=orthogonalEdgeStyle;rounded=0;orthogonalLoop=1;jettySize=auto;html=1;exitX=0.96;exitY=0.7;exitDx=0;exitDy=0;exitPerimeter=0;entryX=0.75;entryY=0;entryDx=0;entryDy=0;" edge="1" parent="1" source="xROOwzo1f8ktLxokpW9C-22" target="xROOwzo1f8ktLxokpW9C-21">
          <mxGeometry relative="1" as="geometry">
            <Array as="points">
              <mxPoint x="885" y="520" />
              <mxPoint x="943" y="520" />
            </Array>
          </mxGeometry>
        </mxCell>
        <mxCell id="xROOwzo1f8ktLxokpW9C-22" value="iot vlan" style="ellipse;shape=cloud;whiteSpace=wrap;html=1;" vertex="1" parent="1">
          <mxGeometry x="770" y="440" width="120" height="80" as="geometry" />
        </mxCell>
        <mxCell id="xROOwzo1f8ktLxokpW9C-29" style="edgeStyle=orthogonalEdgeStyle;rounded=0;orthogonalLoop=1;jettySize=auto;html=1;exitX=0.5;exitY=1;exitDx=0;exitDy=0;entryX=0.625;entryY=0.2;entryDx=0;entryDy=0;entryPerimeter=0;" edge="1" parent="1" source="xROOwzo1f8ktLxokpW9C-10" target="xROOwzo1f8ktLxokpW9C-22">
          <mxGeometry relative="1" as="geometry">
            <Array as="points">
              <mxPoint x="820" y="360" />
              <mxPoint x="820" y="420" />
              <mxPoint x="845" y="420" />
            </Array>
          </mxGeometry>
        </mxCell>
        <mxCell id="xROOwzo1f8ktLxokpW9C-31" value="iot&lt;br&gt;VXLAN" style="text;html=1;strokeColor=none;fillColor=none;align=center;verticalAlign=middle;whiteSpace=wrap;rounded=0;fontStyle=1" vertex="1" parent="1">
          <mxGeometry x="470" y="400" width="60" height="30" as="geometry" />
        </mxCell>
        <mxCell id="xROOwzo1f8ktLxokpW9C-36" value="" style="edgeStyle=orthogonalEdgeStyle;rounded=0;orthogonalLoop=1;jettySize=auto;html=1;" edge="1" parent="1" source="xROOwzo1f8ktLxokpW9C-33" target="xROOwzo1f8ktLxokpW9C-6">
          <mxGeometry relative="1" as="geometry" />
        </mxCell>
        <mxCell id="xROOwzo1f8ktLxokpW9C-33" value="iot device&lt;br&gt;1...n" style="rounded=0;whiteSpace=wrap;html=1;" vertex="1" parent="1">
          <mxGeometry x="80" y="610" width="60" height="60" as="geometry" />
        </mxCell>
        <mxCell id="xROOwzo1f8ktLxokpW9C-37" value="" style="edgeStyle=orthogonalEdgeStyle;rounded=0;orthogonalLoop=1;jettySize=auto;html=1;" edge="1" parent="1" source="xROOwzo1f8ktLxokpW9C-34" target="xROOwzo1f8ktLxokpW9C-6">
          <mxGeometry relative="1" as="geometry" />
        </mxCell>
        <mxCell id="xROOwzo1f8ktLxokpW9C-34" value="iot device&lt;br&gt;1...n" style="rounded=0;whiteSpace=wrap;html=1;" vertex="1" parent="1">
          <mxGeometry x="150" y="610" width="60" height="60" as="geometry" />
        </mxCell>
        <mxCell id="xROOwzo1f8ktLxokpW9C-39" style="edgeStyle=orthogonalEdgeStyle;rounded=0;orthogonalLoop=1;jettySize=auto;html=1;exitX=0.25;exitY=0;exitDx=0;exitDy=0;" edge="1" parent="1" source="xROOwzo1f8ktLxokpW9C-35" target="xROOwzo1f8ktLxokpW9C-6">
          <mxGeometry relative="1" as="geometry" />
        </mxCell>
        <mxCell id="xROOwzo1f8ktLxokpW9C-35" value="iot device&lt;br&gt;1...n" style="rounded=0;whiteSpace=wrap;html=1;" vertex="1" parent="1">
          <mxGeometry x="220" y="610" width="60" height="60" as="geometry" />
        </mxCell>
      </root>
    </mxGraphModel>
  </diagram>
</mxfile>
